<svg xmlns="http://www.w3.org/2000/svg" xmlns:xlink="http://www.w3.org/1999/xlink" width="1922" height="678" viewBox="0 0 1922 678">
  <defs>
    <clipPath id="clip-path">
      <rect id="Rectángulo_278" data-name="Rectángulo 278" width="1922" height="678" transform="translate(0 3040)" fill="none"/>
    </clipPath>
    <clipPath id="clip-path-2">
      <rect id="Rectángulo_263" data-name="Rectángulo 263" width="3592.249" height="328.733" fill="none"/>
    </clipPath>
  </defs>
  <g id="Enmascarar_grupo_47" data-name="Enmascarar grupo 47" transform="translate(0 -3040)" clip-path="url(#clip-path)">
    <g id="Grupo_249" data-name="Grupo 249" transform="translate(3150.132 3074.876) rotate(166)" opacity="0.3">
      <g id="Grupo_234" data-name="Grupo 234" transform="translate(0 -0.002)" clip-path="url(#clip-path-2)">
        <path id="Trazado_159" data-name="Trazado 159" d="M1169.962,328.731h10.631c92.48-15.216,184.852-31.691,277.174-48.166,364.4-65.029,728.073-129.925,1094.39-116.056C2817.739,174.565,2960.375,237.4,3129.714,312q18.788,8.279,38.083,16.734h5.4q-20.643-9.014-40.643-17.85C2962.664,236.035,2819.563,173,2552.5,162.888c-367.257-13.9-731.394,51.074-1096.265,116.185-95.349,17.016-190.75,34.036-286.269,49.658m-98.5,0h11.3c123.166-18.952,246.115-40.878,368.971-62.8C1816.138,200.9,2179.813,136,2546.125,149.874c265.59,10.052,408.218,72.888,577.56,147.486,23.314,10.269,47.129,20.762,71.838,31.371h5.448c-25.645-10.988-50.324-21.856-74.45-32.483-169.89-74.848-312.99-137.885-580.058-148-367.257-13.9-731.392,51.074-1096.263,116.187-126.1,22.5-252.3,45.018-378.735,64.292m-107.128,0h12.6c156.585-21.738,312.745-49.592,468.772-77.436,364.4-65.029,728.076-129.926,1094.39-116.058,265.59,10.053,408.223,72.888,577.565,147.486,33.984,14.972,69.052,30.418,106.394,46.008h5.519c-38.343-15.966-74.28-31.791-109.071-47.12-169.9-74.845-313-137.884-580.069-147.992-367.256-13.9-731.394,51.073-1096.264,116.184-159.7,28.5-319.541,57.01-479.831,78.928m-122.329,0h14.844c194.847-22.859,388.939-57.474,582.815-92.074,364.414-65.027,728.082-129.925,1094.4-116.056,265.589,10.056,408.222,72.889,577.564,147.488,44.6,19.647,91.059,40.11,142.086,60.642h5.625c-52.13-20.906-99.466-41.754-144.872-61.758-169.89-74.843-313-137.881-580.059-147.993-367.262-13.9-731.4,51.074-1096.265,116.185-198.29,35.386-396.807,70.8-596.134,93.566m-157.55,0h21.337c243.656-20.337,485.922-63.537,727.852-106.709,364.4-65.03,728.073-129.925,1094.39-116.057,265.583,10.055,408.219,72.891,577.559,147.488,55.194,24.315,113.234,49.878,179.268,75.277h5.766c-67.258-25.763-126.194-51.722-182.195-76.394-169.891-74.846-313-137.882-580.06-147.993-367.257-13.9-731.393,51.074-1096.263,116.187-248.475,44.342-497.31,88.718-747.654,108.2M0,315.516V317.5q33.64,6.165,67.216,11.233H80.269Q40.177,322.883,0,315.516m0-13.569v1.963q89.628,16.167,178.843,24.822H198.47c-66-5.988-132.148-14.773-198.47-26.785m0-13.534v1.948c482.383,85.606,955.636,1.253,1427.615-82.972,364.4-65.03,728.073-129.927,1094.39-116.057,265.591,10.051,408.219,72.887,577.56,147.484,65.813,29,135.678,59.765,218.319,89.916h5.934c-84.011-30.5-154.778-61.674-221.41-91.028-169.895-74.845-313-137.884-580.064-147.995-367.257-13.9-731.391,51.076-1096.262,116.187C954.625,290.026,481.9,374.287,0,288.412m0-13.6v1.95c480.29,83.842,951.572-.137,1421.585-84.011,364.4-65.03,728.076-129.927,1094.39-116.057,265.588,10.053,408.222,72.887,577.564,147.486,76.506,33.707,158.475,69.807,259.649,104.549h6.149c-102.721-35.076-185.627-71.595-262.955-105.664-169.9-74.846-313-137.881-580.068-147.993-367.257-13.9-731.394,51.074-1096.265,116.186C950.565,275.04,479.817,358.921,0,274.813m0-13.571v1.927c478.211,82.1,947.506-1.531,1415.547-85.054,364.415-65.028,728.083-129.923,1094.4-116.054,265.588,10.052,408.222,72.888,577.563,147.486,87.322,38.467,181.748,80.061,303.733,119.185h6.421c-123.745-39.436-219.156-81.464-307.314-120.3-169.89-74.843-313-137.882-580.059-147.993-367.262-13.9-731.4,51.074-1096.27,116.186C946.5,260.053,477.733,343.6,0,261.242m0-13.581v1.93c476.127,80.365,943.441-2.94,1409.527-86.11,364.4-65.03,728.072-129.927,1094.39-116.057,265.583,10.053,408.219,72.889,577.559,147.486,98.3,43.307,205.6,90.574,351.1,133.822h6.77C3291.824,285.2,3183.477,237.484,3084.315,193.8c-169.891-74.846-313-137.885-580.059-148C2137,31.9,1772.862,96.875,1407.992,161.988,942.44,245.067,475.644,328.282,0,247.661m0-13.618v1.914c474.043,78.647,939.384-4.293,1403.5-87.113C1767.9,83.815,2131.569,18.92,2497.885,32.788c265.591,10.053,408.22,72.886,577.56,147.488,109.521,48.249,230.223,101.41,402.469,148.455h7.145C3310.476,281.441,3188.7,227.8,3078.289,179.16c-169.9-74.846-313-137.881-580.065-147.993-367.257-13.9-731.392,51.074-1096.263,116.185C938.374,230.08,473.561,312.943,0,234.043m0-13.582v1.894c471.958,76.952,935.32-5.675,1397.465-88.146,364.4-65.03,728.077-129.925,1094.391-116.056,265.587,10.052,408.223,72.889,577.558,147.486C3190.46,218.966,3325.147,278.295,3528,328.731h7.675c-205.59-50.638-341.445-110.473-463.413-164.207-169.9-74.845-313-137.882-580.069-147.993C2124.937,2.629,1760.8,67.605,1395.93,132.718,934.314,215.094,471.482,297.657,0,220.461M0,206.79C469.392,282.3,930.244,200.1,1389.9,118.08,1754.769,52.969,2118.905-12.009,2486.168,1.893c267.066,10.113,410.163,73.152,580.063,148,133.946,59.008,284.617,125.379,526.019,178.841H3584C3345.813,275.405,3196.361,209.582,3063.387,151,2894.046,76.4,2751.412,13.569,2485.823,3.516c-366.313-13.867-729.982,51.029-1094.39,116.057C931.254,201.691,469.875,283.988,0,208.719Z" transform="translate(0 0.002)" fill="#acbac9"/>
      </g>
    </g>
  </g>
</svg>
