<svg xmlns="http://www.w3.org/2000/svg" width="97" height="97" viewBox="0 0 97 97">
  <g id="Grupo_179" data-name="Grupo 179" transform="translate(-213.244 -3819.795)">
    <circle id="Elipse_19" data-name="Elipse 19" cx="48.5" cy="48.5" r="48.5" transform="translate(213.244 3819.795)" fill="#f5f1a7"/>
    <g id="Grupo_108" data-name="Grupo 108" transform="translate(-318.756 1971.796)">
      <g id="Grupo_70" data-name="Grupo 70" transform="translate(579.621 1861)">
        <path id="Trazado_9" data-name="Trazado 9" d="M17.213,0a.782.782,0,0,0-.788.663L15.173,8.869h0l-.832,5.472-5.472.832L.664,16.421a.782.782,0,0,0,0,1.545l8.206,1.252h0l5.472.832.832,5.472h0l1.252,8.206h0a.782.782,0,0,0,1.545,0l1.247-8.206h0l.832-5.472,5.472-.832h0l8.206-1.252h0a.782.782,0,0,0,0-1.545l-8.206-1.247-5.472-.832L19.217,8.87h0L17.97.664h0A.782.782,0,0,0,17.213,0ZM17.2,5.975l.475,3.13h0l.919,6.04a.782.782,0,0,0,.655.655l6.04.919,3.13.475-3.13.477h0l-6.04.919h0a.781.781,0,0,0-.655.655l-.919,6.04-.475,3.13-.477-3.13-.919-6.04h0a.781.781,0,0,0-.655-.655L9.1,17.672h0L5.974,17.2,9.1,16.72l6.04-.919h0a.782.782,0,0,0,.655-.655l.919-6.04.477-3.13Z" fill="#1976bb" fill-rule="evenodd"/>
      </g>
      <g id="Grupo_69" data-name="Grupo 69" transform="translate(547.5 1876.905)">
        <path id="Trazado_9-2" data-name="Trazado 9" d="M129.806,33.607a1.189,1.189,0,0,0-1.2,1.009L126.7,47.1h0l-1.267,8.326L117.111,56.7l-12.486,1.9a1.19,1.19,0,0,0,0,2.352l12.486,1.9h0l8.326,1.266,1.267,8.326h0l1.9,12.486h0a1.19,1.19,0,0,0,2.352,0l1.9-12.486h0l1.266-8.326,8.326-1.266h0l12.486-1.9h0a1.19,1.19,0,0,0,0-2.352l-12.486-1.9-8.326-1.266L132.857,47.1h0l-1.9-12.486h0a1.19,1.19,0,0,0-1.153-1.01Zm-.025,9.092.723,4.762h0l1.4,9.191a1.19,1.19,0,0,0,1,1l9.191,1.4,4.762.723-4.763.726h0L132.9,61.9h0a1.189,1.189,0,0,0-1,1l-1.4,9.191-.723,4.762-.726-4.763-1.4-9.191h0a1.189,1.189,0,0,0-1-1l-9.191-1.4h0l-4.763-.726,4.762-.723,9.191-1.4h0a1.19,1.19,0,0,0,1-1l1.4-9.191.726-4.763Z" transform="translate(-103.615 -33.607)" fill="#1976bb" fill-rule="evenodd"/>
      </g>
    </g>
  </g>
</svg>
