<svg xmlns="http://www.w3.org/2000/svg" width="39.982" height="41.02" viewBox="0 0 39.982 41.02">
  <g id="Componente_21_1" data-name="Componente 21 – 1" transform="translate(0 0)">
    <g id="Grupo_104" data-name="Grupo 104" transform="translate(0 9.561)">
      <path id="Trazado_9" data-name="Trazado 9" d="M119.36,33.607a.715.715,0,0,0-.721.607l-1.145,7.506h0l-.761,5.005-5,.761-7.506,1.141a.715.715,0,0,0,0,1.414l7.506,1.145h0l5,.761.761,5.005h0l1.145,7.506h0a.715.715,0,0,0,1.414,0l1.141-7.506h0l.761-5.005,5-.761h0l7.506-1.145h0a.715.715,0,0,0,0-1.414l-7.506-1.141-5.005-.761-.761-5.005h0l-1.141-7.506h0a.715.715,0,0,0-.693-.607Zm-.015,5.465.435,2.863h0l.841,5.525a.715.715,0,0,0,.6.6l5.525.841,2.863.435-2.863.437h0l-5.525.841h0a.715.715,0,0,0-.6.6l-.841,5.525-.435,2.863-.437-2.863-.841-5.525h0a.715.715,0,0,0-.6-.6l-5.525-.841h0l-2.863-.437,2.863-.435,5.525-.841h0a.715.715,0,0,0,.6-.6l.841-5.525.437-2.863Z" transform="translate(-103.615 -33.607)" fill="#f5f1a7" fill-rule="evenodd"/>
    </g>
    <g id="Grupo_105" data-name="Grupo 105" transform="translate(19.309)">
      <path id="Trazado_9-2" data-name="Trazado 9" d="M10.347,0a.47.47,0,0,0-.474.4L9.121,5.332h0l-.5,3.289-3.289.5L.4,9.871a.47.47,0,0,0,0,.929l4.933.752h0l3.289.5.5,3.289h0l.752,4.933h0a.47.47,0,0,0,.929,0l.75-4.933h0l.5-3.289,3.289-.5h0l4.933-.752h0a.47.47,0,0,0,0-.929l-4.933-.75-3.289-.5-.5-3.289h0L10.8.4h0a.47.47,0,0,0-.455-.4Zm-.01,3.592.286,1.881h0L11.175,9.1a.47.47,0,0,0,.394.394l3.631.552,1.881.286-1.882.287h0l-3.631.552h0a.47.47,0,0,0-.394.394L10.623,15.2l-.286,1.881L10.05,15.2,9.5,11.57h0a.47.47,0,0,0-.394-.394l-3.631-.552h0l-1.882-.287,1.881-.286L9.1,9.5h0A.47.47,0,0,0,9.5,9.1l.552-3.631.287-1.882Z" transform="translate(0 0)" fill="#f5f1a7" fill-rule="evenodd"/>
    </g>
  </g>
</svg>
