<svg xmlns="http://www.w3.org/2000/svg" width="30.514" height="20.342" viewBox="0 0 30.514 20.342">
  <path id="Trazado_134" data-name="Trazado 134" d="M133.949,134.4a2.357,2.357,0,0,0-.88.171l13.094,11.663a.977.977,0,0,0,1.418,0l13.069-11.663a2.356,2.356,0,0,0-.88-.171h-25.82Zm-2.323,2.017a2.436,2.436,0,0,0-.024.33V152.4a2.352,2.352,0,0,0,.183.9l9.034-8.68Zm30.466,0-9.169,8.191,9.022,8.68a2.362,2.362,0,0,0,.171-.892V136.747a2.481,2.481,0,0,0-.024-.33Zm-10.929,9.768-2.017,1.809a3.442,3.442,0,0,1-4.548,0l-2.017-1.8-8.9,8.533a2.435,2.435,0,0,0,.269.012h25.82c.085,0,.174,0,.257-.012l-8.864-8.545Z" transform="translate(-131.602 -134.4)" fill="#1475e0"/>
</svg>
