<svg xmlns="http://www.w3.org/2000/svg" width="97" height="97" viewBox="0 0 97 97">
  <g id="Grupo_180" data-name="Grupo 180" transform="translate(-396.5 -3819.795)">
    <circle id="Elipse_18" data-name="Elipse 18" cx="48.5" cy="48.5" r="48.5" transform="translate(396.5 3819.795)" fill="#f5f1a7"/>
    <g id="Grupo_67" data-name="Grupo 67" transform="translate(488.5 3717.85)">
      <path id="Trazado_2" data-name="Trazado 2" d="M267.2,105.692a1.3,1.3,0,0,0,.263-.94c-.094-.94-1.071-1.278-1.334-1.362a32.985,32.985,0,0,1-3.758-1.709,6.8,6.8,0,0,1-1.521-1.277,3.65,3.65,0,0,0-1.813-1.24c-.15-.047-1.061-.46-5.57-3.757a4.848,4.848,0,0,0-5.091-.394l-2.63,1.352,1.878-6.181v-.066l1.484-11.667c.15-.827,1.24-7.158-.554-9.76a3.221,3.221,0,0,0-2.329-1.512,3.653,3.653,0,0,0-2.677,1l-.244.225-.5,4.48-.648,2.47c-.282-.845-.611-1.785-.94-2.686a3.533,3.533,0,0,0-4.49-2.47h-.188a2.527,2.527,0,0,0-2.038,2.217V72.6l1.287,4.152V87.844a15.953,15.953,0,0,0-.544-1.578s-2.179-4.237-4.847-3.26h0a2.818,2.818,0,0,0-1.672,3.551v.094l.047.085c.338.592.742,1.343.836,1.588V88.4a11.173,11.173,0,0,0,.676,3.2c.2.516.357.94.479,1.183a2.528,2.528,0,0,1,.244.686c0,.46.254,3.288.31,3.851V97.5l1.729,3.1-1.381,3.1h0a.949.949,0,0,0-.075.3,1.224,1.224,0,0,0-.113.432v.047l1.494,29a5.354,5.354,0,0,0,5.345,5.091h9.337a4.7,4.7,0,0,0,2.593-.78c2.16-1.428,7.327-5.42,8.764-11.8.413-1.878,1.935-3.288,3.551-4.819,2.245-2.132,4.79-4.546,4.79-8.566,0-.329.178-.592.535-1.1h0a8.176,8.176,0,0,0,1.193-2.17c.78-2.226-.986-3.222-1.878-3.644Zm-22.721-32.5.442-3.964a1.822,1.822,0,0,1,1.146-.375,1.664,1.664,0,0,1,1.128.827c1.2,1.747.611,6.744.282,8.529l-1.5,11.638-2.207,7.392-9.619,5.138,2.818-6.312,3.7-8.351v-.075l2.461-9.393Zm-7.749-1.315h.206c1.174-.178,2.095-.319,2.724,1.409.752,2.048,1.493,4.349,1.719,5.072l-.113.423-2.2,8.341-1.625,3.644V76.488L236.167,72.5a.8.8,0,0,1,.563-.62ZM232.974,97c-.141-1.55-.282-3.269-.282-3.522a3.249,3.249,0,0,0-.376-1.334c-.122-.282-.273-.63-.451-1.127a9.6,9.6,0,0,1-.516-2.724v-.2c0-.047,0-.442-1-2.1h0a1.118,1.118,0,0,1,.676-1.419c.94-.338,2.367,1.616,2.818,2.442.2.423,1.3,4.124,2.029,6.679v.075l.113.225v.085l-2.076,4.631Zm34.538,11.77a6.634,6.634,0,0,1-.939,1.757,3.432,3.432,0,0,0-.846,2.066c0,3.306-2.076,5.269-4.274,7.355-1.729,1.634-3.5,3.325-4.03,5.636-1.3,5.786-6.059,9.468-8.05,10.774a3.038,3.038,0,0,1-1.681.5h-9.374a3.692,3.692,0,0,1-3.682-3.5l-1.456-28.6,15.968-8.219a3.185,3.185,0,0,1,3.353.254c5.269,3.823,5.9,3.954,6.2,4.02a2.633,2.633,0,0,1,.94.771,8.383,8.383,0,0,0,1.878,1.559,34.308,34.308,0,0,0,3.982,1.823l-.094.056-1.109.658c-.291.132-.62.282-.986.47h0a4.435,4.435,0,0,1-.526.16c-1.709.394-3.757-.385-6.153-2.376l-.273-.225h-.347s-3.137.31-3.757-1.343l-1.033-2.921-.563,3.034c0,.075.235,1.606-2.818,2.057l-.516.075-.16.5h0a14.415,14.415,0,0,1-1.643,2.639l-2.968-.676,2.63,2.179a2.893,2.893,0,0,1,.629,2.442l-.611.63.742.188c.141.169,3.485,4.246,7.082,4.246h0a6.774,6.774,0,0,0,6.247-3.541,12.564,12.564,0,0,0,.6-1.174h0a7.139,7.139,0,0,1,3.063-3.758l1.137-.592h0a8.116,8.116,0,0,0,1.015-.488c.573-.244.808-.273,1-.188l.254.113c1.183.535,1.437.883,1.174,1.653Zm-20.618.075h0a7.864,7.864,0,0,0,.629-1.278c.169-.413.319-.836.423-1.146a5.915,5.915,0,0,0,3.692-2.076,6.269,6.269,0,0,0,4.237,1.146,11.985,11.985,0,0,0,4.7,2.479,10.587,10.587,0,0,0-2.236,3.353c-.178.385-.357.752-.526,1.042h0a5.1,5.1,0,0,1-4.8,2.715c-2.3,0-4.7-2.424-5.514-3.316a4.36,4.36,0,0,0-.6-2.921Z" transform="translate(-288.574 43.824)" fill="#1976bb"/>
    </g>
  </g>
</svg>
