<svg xmlns="http://www.w3.org/2000/svg" xmlns:xlink="http://www.w3.org/1999/xlink" width="1920" height="550" viewBox="0 0 1920 550">
  <defs>
    <clipPath id="clip-path">
      <rect id="Rectángulo_319" data-name="Rectángulo 319" width="1920" height="550" transform="translate(0 2273)" fill="none"/>
    </clipPath>
    <clipPath id="clip-path-2">
      <rect id="Rectángulo_263" data-name="Rectángulo 263" width="2292.792" height="328.733" fill="none"/>
    </clipPath>
  </defs>
  <g id="Enmascarar_grupo_43" data-name="Enmascarar grupo 43" transform="translate(0 -2273)" clip-path="url(#clip-path)">
    <g id="Grupo_294" data-name="Grupo 294" transform="translate(2038.823 2411.127) rotate(166)" opacity="0.3">
      <g id="Grupo_234" data-name="Grupo 234" transform="translate(0 -0.002)" clip-path="url(#clip-path-2)">
        <path id="Trazado_159" data-name="Trazado 159" d="M746.741,328.731h6.786c59.026-15.216,117.984-31.691,176.909-48.166,232.584-65.029,464.7-129.925,698.507-116.056C1798.453,174.565,1889.492,237.4,1997.574,312q11.992,8.279,24.307,16.734h3.446q-13.176-9.014-25.941-17.85C1890.953,236.035,1799.617,173,1629.158,162.888c-234.406-13.9-466.82,51.074-699.7,116.185-60.858,17.016-121.748,34.036-182.714,49.658m-62.866,0h7.211c78.612-18.952,157.085-40.878,235.5-62.8,232.584-65.03,464.7-129.925,698.507-116.056,169.516,10.052,260.55,72.888,368.634,147.486,14.88,10.269,30.08,20.762,45.851,31.371h3.477c-16.368-10.988-32.12-21.856-47.518-32.483-108.434-74.848-199.77-137.885-370.229-148-234.406-13.9-466.819,51.074-699.7,116.187-80.485,22.5-161.033,45.018-241.732,64.292m-68.375,0h8.039c99.942-21.738,199.613-49.592,299.2-77.436,232.584-65.029,464.7-129.926,698.506-116.058,169.515,10.053,260.553,72.888,368.637,147.486,21.691,14.972,44.073,30.418,67.907,46.008h3.523c-24.473-15.966-47.41-31.791-69.616-47.12-108.441-74.845-199.778-137.884-370.235-147.992-234.405-13.9-466.82,51.073-699.7,116.184-101.927,28.5-203.95,57.01-306.258,78.928m-78.078,0H546.9c124.363-22.859,248.245-57.474,371.988-92.074,232.591-65.027,464.706-129.925,698.51-116.056,169.515,10.056,260.552,72.889,368.636,147.488,28.466,19.647,58.119,40.11,90.688,60.642h3.591c-33.273-20.906-63.486-41.754-92.466-61.758-108.434-74.843-199.773-137.881-370.229-147.993-234.409-13.9-466.824,51.074-699.7,116.185-126.561,35.386-253.266,70.8-380.489,93.566m-100.558,0h13.618C606,308.395,760.626,265.194,915.041,222.022c232.585-65.03,464.7-129.925,698.506-116.057,169.511,10.055,260.55,72.891,368.633,147.488,35.228,24.315,72.273,49.878,114.42,75.277h3.68c-42.928-25.763-80.545-51.722-116.288-76.394-108.434-74.846-199.773-137.882-370.229-147.993-234.406-13.9-466.82,51.074-699.7,116.187-158.592,44.342-317.413,88.718-477.2,108.2M0,315.516V317.5q21.471,6.165,42.9,11.233h8.331Q25.644,322.883,0,315.516m0-13.569v1.963a955.4,955.4,0,0,0,114.148,24.822h12.527A956.077,956.077,0,0,1,0,301.946m0-13.534v1.948c307.886,85.606,609.945,1.253,911.191-82.972,232.585-65.03,464.7-129.927,698.506-116.057,169.516,10.051,260.55,72.887,368.634,147.484,42.006,29,86.6,59.765,139.345,89.916h3.787c-53.621-30.5-98.789-61.674-141.318-91.028C1871.708,162.859,1780.372,99.82,1609.913,89.709c-234.406-13.9-466.819,51.076-699.7,116.187C609.3,290.026,307.579,374.287,0,288.412m0-13.6v1.95c306.551,83.842,607.351-.137,907.342-84.011,232.584-65.03,464.7-129.927,698.506-116.057,169.514,10.053,260.552,72.887,368.636,147.486,48.831,33.707,101.149,69.807,165.724,104.549h3.925c-65.563-35.076-118.479-71.595-167.834-105.664-108.441-74.846-199.777-137.881-370.235-147.993-234.406-13.9-466.82,51.074-699.7,116.186C606.708,275.04,306.249,358.921,0,274.813m0-13.571v1.927c305.223,82.1,604.756-1.531,903.488-85.054C1136.08,113.087,1368.195,48.192,1602,62.061c169.515,10.052,260.552,72.888,368.636,147.486,55.734,38.467,116,80.061,193.861,119.185h4.1c-78.981-39.436-139.879-81.464-196.147-120.3-108.434-74.843-199.774-137.882-370.229-147.993-234.409-13.9-466.824,51.074-699.706,116.186C604.113,260.053,304.918,343.6,0,261.242m0-13.581v1.93c303.893,80.365,602.161-2.94,899.646-86.11,232.584-65.03,464.7-129.927,698.506-116.057,169.511,10.053,260.55,72.889,368.633,147.486,62.742,43.307,131.227,90.574,224.1,133.822h4.321C2101.042,285.2,2031.889,237.484,1968.6,193.8c-108.434-74.846-199.774-137.885-370.229-148-234.406-13.9-466.82,51.074-699.7,116.187C601.522,245.067,303.585,328.282,0,247.661m0-13.618v1.914c302.563,78.647,599.572-4.293,895.8-87.113C1128.38,83.815,1360.5,18.92,1594.3,32.788c169.516,10.053,260.551,72.886,368.634,147.488,69.9,48.249,146.942,101.41,256.88,148.455h4.56C2112.948,281.441,2035.221,227.8,1964.751,179.16c-108.438-74.846-199.774-137.881-370.233-147.993-234.406-13.9-466.819,51.074-699.7,116.185C598.927,230.08,302.256,312.943,0,234.043m0-13.582v1.894c301.233,76.952,596.978-5.675,891.947-88.146,232.584-65.03,464.7-129.925,698.507-116.056,169.514,10.052,260.552,72.889,368.633,147.486,77.258,53.327,163.224,112.656,292.7,163.093h4.9c-131.22-50.638-217.931-110.473-295.778-164.207C1852.464,89.679,1761.131,26.642,1590.67,16.531c-234.406-13.9-466.82,51.074-699.7,116.187C596.336,215.094,300.929,297.657,0,220.461M0,206.79C299.595,282.3,593.738,200.1,887.117,118.08,1120,52.969,1352.414-12.009,1586.824,1.893c170.458,10.113,261.791,73.152,370.231,148,85.492,59.008,181.66,125.379,335.737,178.841h-5.264C2135.5,275.405,2040.112,209.582,1955.24,151,1847.156,76.4,1756.118,13.569,1586.6,3.516,1352.8-10.351,1120.685,54.546,888.1,119.573,594.383,201.691,299.9,283.988,0,208.719Z" transform="translate(0 0.002)" fill="#acbac9"/>
      </g>
    </g>
  </g>
</svg>
