<?xml version="1.0" encoding="utf-8"?>
<!-- Generator: Adobe Illustrator 26.4.1, SVG Export Plug-In . SVG Version: 6.00 Build 0)  -->
<svg version="1.1" id="Capa_1" xmlns="http://www.w3.org/2000/svg" xmlns:xlink="http://www.w3.org/1999/xlink" x="0px" y="0px"
	 viewBox="0 0 974 347" style="enable-background:new 0 0 974 347;" xml:space="preserve">
<style type="text/css">
	.st0{fill:#FC5757;}
	.st1{fill:#F9F9F9;}
	.st2{fill:#1B75BC;}
	.st3{fill:#22B4E7;}
	.st4{fill:#24A7E1;}
	.st5{fill:#FFFFFF;}
</style>
<polygon class="st0" points="-0.03,276.37 -0.03,346.52 974.22,346.52 974.22,220.74 797.48,220.74 797.54,277.63 "/>
<polygon class="st1" points="136.46,109.83 185.27,178.06 185.27,246.29 216.38,246.29 216.38,178.06 267.48,109.83 230.14,109.83 
	201.97,155.56 172.49,109.83 "/>
<polygon class="st1" points="497.74,109.83 497.74,135.58 554.72,136.12 497.12,246.32 598.55,245.07 598.55,219.76 543.45,220.02 
	601.24,109.83 "/>
<path class="st1" d="M723.09,109.83h-25.88L641.86,246.3h32.43l9.42-28.77h52.59l10.38,28.77h30.79L723.09,109.83z M693.72,192.47
	l15.94-45.75l17.69,45.75H693.72z"/>
<polygon class="st2" points="971.72,179.95 854.01,32.19 836.09,32.19 836.48,-0.37 806.61,-0.37 806.42,49.72 793.9,27.18 
	708.75,22.17 816.44,159.92 "/>
<g>
	<polygon class="st3" points="694.97,63.49 623.59,154.91 666.17,139.88 710,83.53 	"/>
</g>
<polygon class="st4" points="946.67,199.99 791.4,179.95 683.7,42.2 726.28,44.71 816.44,159.92 926.07,174.06 "/>
<g>
	<path class="st5" d="M16.16,315.37h3.85c0.34,2.38,2.54,3.88,6.04,3.88c2.85,0,4.35-1.09,4.35-2.94c0-1.72-1.35-2.41-3.47-3.07
		l-3.57-1.06c-2.57-0.78-6.57-1.91-6.57-6.2c0-3.6,2.97-6.23,7.83-6.23c5.29,0,8.67,2.85,8.95,7.48h-3.82
		c-0.16-2.47-1.97-4.13-5.26-4.13c-2.41,0-3.97,1-3.97,2.69c0,1.91,1.91,2.38,4.04,3.07l3.32,1.03c3.1,0.97,6.35,2.1,6.35,6.23
		c0,3.97-3.16,6.48-8.17,6.48C20.29,322.6,16.44,319.72,16.16,315.37z"/>
	<path class="st5" d="M52.53,311.11c0-6.64,4.19-11.36,10.92-11.36c6.51,0,10.99,4.48,10.99,11.36c0,6.7-4.23,11.49-10.99,11.49
		C56.98,322.6,52.53,318.09,52.53,311.11z M70.62,311.11c0-4.88-2.79-7.98-7.17-7.98c-4.35,0-7.11,3.1-7.11,7.98
		c0,4.95,2.75,8.07,7.11,8.07C67.84,319.18,70.62,316.05,70.62,311.11z"/>
	<path class="st5" d="M98.96,322.13v-21.91h3.76v18.53h11.17v3.38L98.96,322.13L98.96,322.13z"/>
	<path class="st5" d="M137.06,314.83v-14.61h3.76v14.52c0,2.82,2.28,4.41,5.35,4.41c3.1,0,5.38-1.6,5.38-4.41v-14.52h3.76v14.62
		c0,4.38-3.41,7.76-9.11,7.76C140.56,322.6,137.06,319.28,137.06,314.83z"/>
	<path class="st5" d="M177.16,311.37c0-6.64,4.19-11.36,11.02-11.36c5.7,0,9.61,3.32,10.55,8.92h-3.85
		c-0.69-3.44-3.22-5.54-6.7-5.54c-4.41,0-7.17,3.1-7.17,7.98c0,5.01,2.76,8.07,7.17,8.07c3.54,0,6.01-2.03,6.7-5.51h3.85
		c-1,5.7-4.82,8.92-10.55,8.92C181.45,322.86,177.16,318.23,177.16,311.37z"/>
	<path class="st5" d="M220.77,322.13v-21.91h3.76v21.91L220.77,322.13L220.77,322.13z"/>
	<path class="st5" d="M249.04,311.11c0-6.64,4.19-11.36,10.92-11.36c6.51,0,10.99,4.48,10.99,11.36c0,6.7-4.23,11.49-10.99,11.49
		C253.49,322.6,249.04,318.09,249.04,311.11z M267.13,311.11c0-4.88-2.79-7.98-7.17-7.98c-4.35,0-7.11,3.1-7.11,7.98
		c0,4.95,2.75,8.07,7.11,8.07C264.35,319.18,267.13,316.05,267.13,311.11z"/>
	<path class="st5" d="M295.47,322.13v-21.91h4.07l10.86,16.49v-16.49h3.76v21.91h-4.07l-10.86-16.49v16.49L295.47,322.13
		L295.47,322.13z"/>
	<path class="st5" d="M339.7,322.13v-21.91h15.34v3.38h-11.61v5.63h10.52v3.29h-10.52v6.23h11.89v3.38L339.7,322.13L339.7,322.13z"
		/>
	<path class="st5" d="M378.87,315.37h3.85c0.34,2.38,2.54,3.88,6.04,3.88c2.85,0,4.35-1.09,4.35-2.94c0-1.72-1.35-2.41-3.47-3.07
		l-3.57-1.06c-2.57-0.78-6.57-1.91-6.57-6.2c0-3.6,2.97-6.23,7.83-6.23c5.29,0,8.67,2.85,8.95,7.48h-3.82
		c-0.16-2.47-1.97-4.13-5.26-4.13c-2.41,0-3.97,1-3.97,2.69c0,1.91,1.91,2.38,4.04,3.07l3.32,1.03c3.1,0.97,6.35,2.1,6.35,6.23
		c0,3.97-3.16,6.48-8.17,6.48C383,322.6,379.15,319.72,378.87,315.37z"/>
	<path class="st5" d="M446.55,322.13v-21.91h3.76v21.91L446.55,322.13L446.55,322.13z"/>
	<path class="st5" d="M478.33,322.13v-21.91h4.63l6.85,17.4l6.82-17.4h4.63v21.91h-3.76V306.7l-6.07,15.43h-3.29l-6.07-15.4v15.4
		L478.33,322.13L478.33,322.13z"/>
	<path class="st5" d="M526.82,322.13v-21.91h11.11c4.48,0,7.2,2.97,7.2,6.89c0,4.41-3.07,7.11-7.2,7.11h-7.35v7.92h-3.76V322.13z
		 M530.57,310.83h7.17c2.35,0,3.57-1.75,3.57-3.72c0-2.07-1.41-3.51-3.57-3.51h-7.17V310.83z"/>
	<path class="st5" d="M566.99,322.13v-21.91h15.34v3.38h-11.62v5.63h10.52v3.29h-10.52v6.23h11.89v3.38L566.99,322.13L566.99,322.13
		z"/>
	<path class="st5" d="M607.09,322.13v-21.91h10.71c4.16,0,7.04,2.54,7.04,6.2c0,2.69-1.91,4.91-4.82,5.66
		c1.44,0.28,2.47,1.16,3.01,2.5l2.82,7.54h-4.01l-2.54-6.92c-0.31-0.88-1.03-1.35-2.03-1.35h-6.42v8.26h-3.76V322.13z
		 M610.85,310.55h6.76c2.32,0,3.5-1.66,3.5-3.57c0-2-1.38-3.38-3.5-3.38h-6.76V310.55z"/>
	<path class="st5" d="M649.82,322.13v-21.91h4.63l6.86,17.4l6.82-17.4h4.63v21.91h-3.75V306.7l-6.07,15.43h-3.29l-6.07-15.4v15.4
		L649.82,322.13L649.82,322.13z"/>
	<path class="st5" d="M698.31,322.13v-21.91h15.34v3.38h-11.61v5.63h10.52v3.29h-10.52v6.23h11.89v3.38L698.31,322.13L698.31,322.13
		z"/>
	<path class="st5" d="M736.7,322.13l8.95-21.91h3.76l8.98,21.91h-3.88l-2.22-5.42h-9.48l-2.22,5.42H736.7z M744.14,313.39h6.79
		l-3.38-8.33L744.14,313.39z"/>
	<path class="st5" d="M782.21,322.13v-21.91h10.39c3.97,0,6.76,2.25,6.76,5.54c0,2.5-1.81,4.45-4.51,5.1
		c3.04,0.47,4.98,2.54,4.98,5.32c0,3.51-2.88,5.95-7.04,5.95L782.21,322.13L782.21,322.13z M785.94,309.36h6.54
		c1.88,0,3.16-1.25,3.16-3c0-1.63-1.19-2.79-2.88-2.79h-6.82L785.94,309.36L785.94,309.36z M785.94,318.75h7.04
		c1.88,0,3.04-1.35,3.04-3.1c0-1.78-1.38-3.04-3.38-3.04h-6.7L785.94,318.75L785.94,318.75z"/>
	<path class="st5" d="M819.34,322.13v-21.91h3.76v18.53h11.17v3.38L819.34,322.13L819.34,322.13z"/>
	<path class="st5" d="M861.07,322.13v-21.91h15.34v3.38H864.8v5.63h10.52v3.29H864.8v6.23h11.89v3.38L861.07,322.13L861.07,322.13z"
		/>
	<path class="st5" d="M900.24,315.37h3.85c0.34,2.38,2.54,3.88,6.04,3.88c2.85,0,4.35-1.09,4.35-2.94c0-1.72-1.35-2.41-3.48-3.07
		l-3.57-1.06c-2.57-0.78-6.57-1.91-6.57-6.2c0-3.6,2.97-6.23,7.82-6.23c5.29,0,8.67,2.85,8.95,7.48h-3.82
		c-0.16-2.47-1.97-4.13-5.26-4.13c-2.41,0-3.97,1-3.97,2.69c0,1.91,1.91,2.38,4.04,3.07l3.32,1.03c3.1,0.97,6.35,2.1,6.35,6.23
		c0,3.97-3.16,6.48-8.17,6.48C904.37,322.6,900.52,319.72,900.24,315.37z"/>
</g>
<path class="st1" d="M102.6,246.29l-38.01-51.31c0,0,30.05-5.01,30.05-40.07c0-37.93-29.82-44.06-36.33-44.94
	c-0.72-0.1-1.45-0.14-2.17-0.14H1.97V246.3h28.4l-0.85-48.81l33.61,48.81L102.6,246.29L102.6,246.29z M45.8,174.94H29.52v-42.58
	H45.8c11.76,0,21.29,9.53,21.29,21.29C67.09,165.41,57.56,174.94,45.8,174.94z"/>
<path class="st1" d="M439.51,202.41c-1.54,3.5-22.69,47.67-65.52,47.67c-47.16,0-69.41-32.22-69.41-69.41
	c0-37.18,22.31-69.41,69.41-69.41c42.66,0,62.46,38.12,65.52,45.02l-32.29,1.54c-7.45-11.12-17.9-18.45-32.29-18.45
	c-22.93,0-41.52,18.59-41.52,41.52s18.59,41.52,41.52,41.52c15.68,0,25.23-8.7,32.29-21.53L439.51,202.41z"/>
</svg>
