<svg xmlns="http://www.w3.org/2000/svg" xmlns:xlink="http://www.w3.org/1999/xlink" width="1920" height="523" viewBox="0 0 1920 523">
  <defs>
    <clipPath id="clip-path">
      <rect id="Rectángulo_317" data-name="Rectángulo 317" width="1920" height="523" transform="translate(0 816)" fill="none"/>
    </clipPath>
    <clipPath id="clip-path-2">
      <rect id="Rectángulo_316" data-name="Rectángulo 316" width="1920" height="534.903" transform="translate(-313.943 -28)" fill="none"/>
    </clipPath>
  </defs>
  <g id="Enmascarar_grupo_42" data-name="Enmascarar grupo 42" transform="translate(0 -816)" clip-path="url(#clip-path)">
    <g id="Grupo_292" data-name="Grupo 292" transform="translate(1606.057 1299.902) rotate(180)" opacity="0.499" clip-path="url(#clip-path-2)">
      <path id="Trazado_273" data-name="Trazado 273" d="M0,73.39v2.22C153.325,377.037,381.475,340.068,608.626,303.235c106.421-17.257,212.627-34.478,310.723-16.736,71.123,12.863,102.882,45.206,140.588,83.6,36.8,37.479,79.264,80.72,169.411,117.327,43.3,17.586,95.379,33.551,152.122,47.469h3.169c-57.766-14.062-110.78-30.245-154.739-48.1-89.935-36.521-132.323-79.688-169.065-117.1-37.83-38.524-69.693-70.971-141.211-83.907-98.349-17.788-204.691-.545-311.247,16.734-121.3,19.67-242.9,39.385-353.221,7.343C158.953,281.929,71.32,214.571,0,73.39m0-6.672v2.22C153.325,370.364,381.475,333.4,608.626,296.563c106.421-17.257,212.627-34.478,310.723-16.736,71.123,12.863,102.882,45.206,140.588,83.6,36.8,37.479,79.264,80.72,169.411,117.327,50.4,20.465,112.667,38.738,180.359,54.142h3.394c-68.8-15.53-132.111-34.022-183.2-54.768-89.935-36.521-132.323-79.688-169.065-117.1-37.83-38.525-69.693-70.972-141.211-83.907-98.349-17.787-204.691-.545-311.247,16.734C381.214,332.689,153.047,369.682,0,66.718m0-6.672v2.22C153.325,363.692,381.475,326.724,608.626,289.891c106.421-17.257,212.627-34.479,310.723-16.736,71.123,12.863,102.882,45.205,140.588,83.6,36.8,37.479,79.264,80.72,169.411,117.327,57.884,23.507,131.434,44.119,210.868,60.814h3.634c-80.623-16.8-155.332-37.637-213.95-61.44-89.935-36.521-132.323-79.688-169.065-117.1-37.83-38.525-69.693-70.972-141.211-83.907-98.349-17.787-204.691-.545-311.247,16.734C381.214,326.017,153.047,363.01,0,60.046m0-6.672v2.22C153.325,357.02,381.475,320.052,608.626,283.218c106.421-17.257,212.627-34.479,310.723-16.736,71.123,12.863,102.882,45.205,140.588,83.6,36.8,37.479,79.264,80.719,169.411,117.327,65.856,26.743,151.987,49.743,244,67.486h3.943c-93.292-17.819-180.74-41.048-247.387-68.112-89.935-36.521-132.323-79.687-169.065-117.1-37.83-38.524-69.693-70.972-141.211-83.907-98.349-17.787-204.691-.545-311.247,16.734C381.214,319.345,153.047,356.338,0,53.373M0,46.7v2.22C153.325,350.347,381.475,313.38,608.626,276.546c106.421-17.257,212.627-34.479,310.723-16.736,71.123,12.863,102.882,45.206,140.588,83.6,36.8,37.479,79.264,80.72,169.411,117.327,74.444,30.231,174.8,55.682,280.262,74.158h4.337c-106.854-18.515-208.734-44.2-284.047-74.784-89.935-36.521-132.323-79.688-169.065-117.1-37.83-38.525-69.693-70.972-141.211-83.907-98.349-17.787-204.691-.545-311.247,16.734C381.214,312.672,153.047,349.665,0,46.7m0-6.672v2.22C153.325,343.676,381.475,306.708,608.626,269.874c106.421-17.257,212.627-34.478,310.723-16.736,71.123,12.863,102.882,45.206,140.588,83.6,36.8,37.479,79.264,80.72,169.411,117.327,83.863,34.056,200.6,62.044,320.494,80.83h4.817c-121.391-18.771-239.927-47.007-324.759-81.457-89.935-36.521-132.323-79.688-169.065-117.1-37.83-38.525-69.693-70.972-141.211-83.907-98.349-17.787-204.691-.545-311.247,16.734C381.214,306,153.047,342.993,0,40.029m0-6.672v2.22C153.325,337,381.475,300.035,608.626,263.2c106.421-17.257,212.627-34.478,310.723-16.736,71.123,12.863,102.882,45.205,140.588,83.6,36.8,37.479,79.264,80.72,169.411,117.327,94.457,38.359,230.624,69.017,366.022,87.5h5.5C1463.843,516.51,1325.48,485.584,1229.9,446.77c-89.935-36.521-132.323-79.688-169.065-117.1-37.83-38.525-69.693-70.972-141.211-83.907-98.349-17.787-204.691-.545-311.247,16.734C381.214,299.328,153.047,336.321,0,33.357m0-6.672V28.9C153.325,330.331,381.475,293.363,608.626,256.53c106.421-17.257,212.627-34.479,310.723-16.736,71.123,12.863,102.882,45.205,140.588,83.6,36.8,37.479,79.264,80.72,169.411,117.328,101.478,41.209,251.093,73.534,396.181,91.423q11.68,1.439,23.31,2.752h6.629q-14.827-1.633-29.75-3.471C1480.745,513.554,1331.263,481.26,1229.9,440.1c-89.935-36.521-132.323-79.687-169.065-117.1-37.83-38.524-69.693-70.972-141.211-83.907-98.349-17.787-204.691-.545-311.247,16.735C381.214,292.656,153.047,329.649,0,26.685m0-6.672v2.22C153.325,323.659,381.475,286.691,608.626,249.857c106.421-17.257,212.627-34.479,310.723-16.736,71.123,12.863,102.882,45.206,140.588,83.6,36.8,37.479,79.264,80.72,169.411,117.327,101.478,41.209,251.093,73.534,396.181,91.423,30.965,3.817,61.721,6.975,91.765,9.424h9.259c-32.906-2.537-66.744-5.94-100.835-10.143-144.973-17.874-294.455-50.168-395.818-91.33-89.935-36.521-132.323-79.688-169.065-117.1-37.83-38.525-69.693-70.972-141.211-83.907-98.349-17.787-204.691-.545-311.247,16.734C381.214,285.984,153.047,322.977,0,20.012m1920,505.8v-.729c-81.157,4.939-186.463-.376-294.283-13.669-144.973-17.874-294.455-50.169-395.818-91.331-89.935-36.521-132.323-79.688-169.065-117.1-37.83-38.525-69.693-70.972-141.211-83.907-98.349-17.787-204.691-.545-311.247,16.734C381.214,272.639,153.047,309.632,0,6.668v2.22C153.325,310.314,381.475,273.347,608.626,236.513c106.421-17.257,212.627-34.478,310.723-16.736,71.123,12.863,102.882,45.206,140.588,83.6,36.8,37.479,79.264,80.72,169.411,117.327,101.478,41.209,251.093,73.535,396.181,91.423,107.85,13.3,213.212,18.614,294.472,13.68m0,6.672v-.729c-81.157,4.939-186.463-.376-294.283-13.669-144.973-17.874-294.455-50.168-395.818-91.331-89.935-36.521-132.323-79.688-169.065-117.1-37.83-38.524-69.693-70.972-141.211-83.907-98.349-17.787-204.691-.545-311.247,16.734C381.214,279.311,153.047,316.3,0,13.34v2.22C153.325,316.987,381.475,280.018,608.626,243.185c106.421-17.257,212.627-34.479,310.723-16.736,71.123,12.863,102.882,45.205,140.588,83.6,36.8,37.479,79.264,80.72,169.411,117.327,101.478,41.209,251.093,73.534,396.181,91.423,107.85,13.3,213.212,18.614,294.472,13.68M0,0C153.047,302.96,381.214,265.967,608.377,229.132c106.556-17.279,212.9-34.522,311.247-16.735,71.519,12.935,103.382,45.383,141.211,83.907,36.741,37.417,79.13,80.583,169.065,117.1,101.363,41.162,250.845,73.457,395.818,91.33,107.82,13.293,213.126,18.608,294.283,13.669v.729c-81.26,4.934-186.622-.383-294.472-13.68-145.088-17.888-294.7-50.213-396.181-91.423-90.147-36.608-132.609-79.848-169.411-117.327-37.706-38.4-69.465-70.74-140.588-83.6-98.1-17.742-204.3-.521-310.723,16.736C381.475,266.674,153.325,303.642,0,2.216Z" transform="translate(-313.943 -27.996)" fill="#acbac9"/>
    </g>
  </g>
</svg>
